<?xml version="1.0" encoding="utf-8"?>
<!-- Generator: Adobe Illustrator 22.0.1, SVG Export Plug-In . SVG Version: 6.00 Build 0)  -->
<svg version="1.1" id="Layer_1" xmlns="http://www.w3.org/2000/svg" xmlns:xlink="http://www.w3.org/1999/xlink" x="0px" y="0px"
	 viewBox="0 0 512 512" style="enable-background:new 0 0 512 512;" xml:space="preserve">
<style type="text/css">
	.st0{fill:#ABABAB;}
</style>
<g>
	<path class="st0" d="M509.1,91.3L420.7,2.9c-2-2-4.9-3.1-7.7-2.9c-2.9,0.2-5.5,1.6-7.3,3.9l-20.8,27c-30.7-5.5-60.7,4.8-85.3,29.4
		l-19.8,19c-0.9-0.5-24.7-15.5-29.1-17.8c-50.3-27-64.7-31.1-110.2-31.3c-4.3,0-9.4,0.5-13.3,1L106.3,3.9c-1.8-2.3-4.4-3.7-7.3-3.9
		c-2.9-0.2-5.7,0.9-7.7,2.9L2.9,91.3c-2,2-3.1,4.8-2.9,7.7c0.2,2.9,1.6,5.5,3.9,7.3l27,20.8c-5.5,30.6,4.8,60.7,29.4,85.3l67.9,70.8
		c1.4,9.6,7.9,49.9,9.1,56.7c1.2,6.3,2.5,13.3,4,18c8.1,26.9,14.1,44.2,22.4,59.1c8,14.2,17.5,25,33.3,41c3.2,3.2,6.9,6.2,9.7,8.4
		l0.4,0.3l-4.4,34.1c-0.4,2.8,0.5,5.7,2.4,7.9c1.9,2.2,4.6,3.4,7.5,3.4h125c2.9,0,5.6-1.2,7.5-3.4c1.9-2.2,2.8-5,2.4-7.9l-4.4-33.8
		c6.5-4.6,12.4-9.9,17.4-15.9c3.5-4.2,3-10.5-1.2-14.1c-1.8-1.5-4.1-2.3-6.4-2.3c-3,0-5.8,1.3-7.7,3.6c-4.5,5.3-9.7,9.9-15.7,13.8
		c0,0,0,0,0,0l-108.5,0.1c-1.1-0.8-8.3-6.7-9.8-8.2c-14.6-14.7-23.2-24.4-30.1-36.7c-6.5-11.4-12.1-26.4-20.7-55.1
		c-0.8-2.7-2.1-8.6-3.5-15.9c-3.3-17.9-12-75.9-12-76c0-1.3,1.1-2.5,2.4-2.5c0.6,0,1.1-0.1,1.7-0.1c11.5,0,21.5,8.2,23.8,19.5
		l13.3,65.6c0.9,4.6,5.1,8,9.8,8c0.3,0,0.7,0,1,0c2.5-0.3,4.7-1.4,6.4-3.2c1.7-1.8,2.6-4.2,2.6-6.7v-209c0-3.4,1.3-6.5,3.7-9
		c2.4-2.4,5.5-3.7,8.9-3.7c6.9,0,12.6,5.7,12.6,12.6c0,0,0,180.4,0,180.4c0,5.5,4.5,10,10,10c5.5,0,10-4.5,10-10l0-204.4
		c0-3.4,1.3-6.5,3.7-9c2.4-2.4,6.9-3.6,10.3-3.6c2.9,0.3,5.4,1.6,7.5,3.8c0.9,0.9,1.6,2,2.2,3.1c1,1.9,1.5,4,1.5,6.2l0,203.9
		c0,5.5,4.2,10,9.8,10c5.5,0,9.8-4.5,9.8-10V131.7c0,0,0.3,0,0.3,0c0-3.4,1.4-6.6,3.8-9c2.4-2.4,5.6-3.7,9-3.7
		c7,0,12.7,5.7,12.7,12.7l-2.6,180.2c-0.1,5.5,4.3,10.1,9.8,10.2c0.1,0,0.1,0,0.2,0c5.4,0,10-4.3,10.1-9.8l2.7-132.9v-0.2
		c0-3.4,1.2-6.6,3.6-9c2.4-2.4,5.5-3.7,8.9-3.7c6.9,0,12.5,5.7,12.6,12.6L363.3,359c-0.1,2.7,0.9,5.2,2.8,7.1c1.8,1.9,4.3,3,7,3.1
		c2.7,0,5.3-1,7.2-2.9c1.9-1.8,3-4.3,3-6.9l0.9-42.6c0.1-0.1,13.7-11.5,19.3-16.3c20.6-17.8,39.1-35.4,47.1-49.6
		c28.4-50.8,31.1-65.3,31.4-110.3c0-4.3-0.5-9.4-1-13.3l27.2-20.9c2.3-1.8,3.7-4.4,3.9-7.3C512.2,96.2,511.1,93.4,509.1,91.3z
		 M226.6,472.1l97-0.1l2.6,20H224L226.6,472.1z M25.1,97.4l72.3-72.3L109.6,41l-68.5,68.7L25.1,97.4z M240.8,84.6
		c-4.7,4.7-7.8,10.6-9,17.2c-4.2-1.8-8.6-2.8-13.2-2.8h0c-4.4,0-8.7,0.9-12.7,2.6c-3.9,1.7-7.4,4-10.4,7c-3,3-5.3,6.5-7,10.4
		c-1.7,4-2.6,8.3-2.6,12.7v125.8c-4-6-9.4-11-15.7-14.4c-6.5-3.5-13.8-5.4-21.2-5.4c-1,0-2.1,0-3.1,0.1c-5.8,0.4-11.1,3-15,7.2
		c-2,2.2-3.6,4.8-4.6,7.5l-51.7-53.9c0-0.1-0.1-0.1-0.1-0.2C54,177.9,45.8,153,51.1,128l76.6-76.8c3.6-0.5,9-1.1,12.8-1.1
		c40.2,0.2,51.3,2.4,100.8,28.9c1,0.5,2.1,1.2,3.6,2.1C243.4,82.2,242.1,83.3,240.8,84.6z M433,241.1c-7.5,13.3-30.6,34-48.3,49.1
		l2.3-110.9v-0.2c0-8.7-3.4-17.2-9.5-23.3c-6.2-6.2-14.4-9.8-23.1-9.8h0c-4.4,0-8.4,1.3-12.4,3v-17.4c0-8.7-3.5-16.9-9.7-23.1
		c-6.2-6.2-14.5-9.6-23.2-9.6h0c-4.6,0-9,0.9-13.2,2.8c-0.5-2.7-1.4-5.3-2.5-7.8l20.2-19.3l0.2-0.1C334.1,54,359,45.8,384,51.1
		l76.8,76.6c0.5,3.6,1.1,9,1.1,12.8C461.7,180.6,460.6,191.9,433,241.1z M471,109.6l-68.7-68.5l12.3-16l72.3,72.3L471,109.6z"/>
	<circle class="st0" cx="371.2" cy="404.1" r="10"/>
</g>
</svg>
