<?xml version="1.0" encoding="utf-8"?>
<!-- Generator: Adobe Illustrator 22.0.1, SVG Export Plug-In . SVG Version: 6.00 Build 0)  -->
<svg version="1.1" id="Capa_1" xmlns="http://www.w3.org/2000/svg" xmlns:xlink="http://www.w3.org/1999/xlink" x="0px" y="0px"
	 viewBox="0 163.1 612 465.7" style="enable-background:new 0 163.1 612 465.7;" xml:space="preserve">
<style type="text/css">
	.st0{fill:#007BC7;}
</style>
<g>
	<g>
		<path class="st0" d="M537.3,163.1H74.8C33.6,163.1,0,196.7,0,238V554c0,41.3,33.6,74.8,74.8,74.8h462.3
			c41.3,0,74.8-33.6,74.8-74.8V238.1C612.1,196.8,578.6,163.1,537.3,163.1z M577.9,554c0,22.4-18.2,40.6-40.6,40.6H74.8
			c-22.4,0-40.6-18.2-40.6-40.6V238.1c0-22.4,18.2-40.6,40.6-40.6h462.3c22.4,0,40.6,18.2,40.6,40.6V554H577.9z"/>
		<path class="st0" d="M386,392.1l149.7-134.2c7-6.3,7.6-17.1,1.3-24.2c-6.3-7-17.1-7.6-24.2-1.3L306.3,417.7l-40.3-36
			c-0.1-0.1-0.3-0.3-0.3-0.4c-0.9-0.9-1.8-1.6-2.8-2.4L99.2,232.3c-7.1-6.3-17.9-5.7-24.2,1.4c-6.3,7.1-5.7,17.9,1.4,24.2
			l151.4,135.4L77,534.4c-6.8,6.5-7.2,17.2-0.8,24.2c3.4,3.5,8,5.4,12.5,5.4c4.2,0,8.4-1.5,11.6-4.6l153.1-143.2l41.5,37.1
			c3.3,2.9,7.3,4.3,11.4,4.3c4.1,0,8.2-1.5,11.4-4.4l42.7-38.2l152.2,144.6c3.3,3.2,7.6,4.7,11.8,4.7c4.6,0,9-1.8,12.4-5.3
			c6.5-6.8,6.2-17.7-0.6-24.2L386,392.1z"/>
	</g>
</g>
</svg>
