<?xml version="1.0" encoding="utf-8"?>
<!-- Generator: Adobe Illustrator 16.0.0, SVG Export Plug-In . SVG Version: 6.00 Build 0)  -->
<!DOCTYPE svg PUBLIC "-//W3C//DTD SVG 1.1//EN" "http://www.w3.org/Graphics/SVG/1.1/DTD/svg11.dtd">
<svg version="1.1" id="globe-1_1_" xmlns="http://www.w3.org/2000/svg" xmlns:xlink="http://www.w3.org/1999/xlink" x="0px" y="0px"
	 width="95.065px" height="94.967px" viewBox="0 0 95.065 94.967" enable-background="new 0 0 95.065 94.967" xml:space="preserve">
<g id="globe-1">
	<g>
		<path fill-rule="evenodd" clip-rule="evenodd" fill="#B1D137" d="M47.532,0C21.323,0,0,21.3,0,47.483
			c0,26.183,21.323,47.483,47.532,47.483c26.21,0,47.533-21.301,47.533-47.483C95.065,21.3,73.742,0,47.532,0z M5.941,47.483
			c0-4.125,0.613-8.107,1.739-11.871h14.285c-0.759,3.886-1.17,7.858-1.17,11.877c0,4.015,0.41,7.983,1.167,11.865H7.681
			C6.555,55.591,5.941,51.608,5.941,47.483z M26.737,47.489c0-4.025,0.435-8.005,1.273-11.877h16.551v23.742H28.007
			C27.17,55.486,26.737,51.511,26.737,47.489z M65.419,29.676H50.504V6.467C57.385,12.905,62.481,20.9,65.419,29.676z M44.562,6.473
			v23.203H29.649C32.587,20.903,37.684,12.91,44.562,6.473z M44.562,65.291v23.224c-6.883-6.441-11.981-14.441-14.918-23.224H44.562
			z M50.504,88.501v-23.21h14.915C62.481,74.066,57.384,82.062,50.504,88.501z M50.504,59.354V35.612h16.553
			c0.838,3.87,1.271,7.848,1.271,11.871s-0.434,8.001-1.271,11.871H50.504z M73.102,35.612h14.283
			c1.126,3.764,1.739,7.746,1.739,11.871s-0.613,8.107-1.739,11.871H73.102c0.758-3.884,1.168-7.854,1.168-11.871
			S73.859,39.496,73.102,35.612z M85.103,29.676H71.635c-2.388-7.965-6.348-15.407-11.692-21.851
			C71.047,11.3,80.16,19.312,85.103,29.676z M35.132,7.822c-5.348,6.444-9.31,13.887-11.699,21.854H9.963
			C14.907,19.309,24.022,11.295,35.132,7.822z M9.963,65.291h13.465c2.386,7.963,6.342,15.403,11.683,21.847
			C24.011,83.66,14.903,75.651,9.963,65.291z M59.94,87.143c5.346-6.444,9.306-13.886,11.694-21.852h13.468
			C80.159,75.655,71.046,83.668,59.94,87.143z"/>
	</g>
</g>
</svg>
