<?xml version="1.0" encoding="utf-8"?>
<!-- Generator: Adobe Illustrator 22.0.1, SVG Export Plug-In . SVG Version: 6.00 Build 0)  -->
<svg version="1.1" id="Capa_1" xmlns="http://www.w3.org/2000/svg" xmlns:xlink="http://www.w3.org/1999/xlink" x="0px" y="0px"
	 viewBox="60.6 90 490.9 612" style="enable-background:new 60.6 90 490.9 612;" xml:space="preserve">
<style type="text/css">
	.st0{fill:#0066B3;}
</style>
<g>
	<g>
		<path class="st0" d="M305.9,90C170.6,90,60.6,200.1,60.6,335.3c0,15.4,1.4,30.9,4.4,46.1c0.1,0.9,0.6,3.6,1.7,8.2
			c3.7,16.6,9.2,32.8,16.4,48.4c26.4,62.2,84.6,157.8,212.1,260.2c3.2,2.6,7.1,3.8,10.9,3.8c3.8,0,7.7-1.3,10.9-3.8
			C444.3,595.8,502.6,500.2,529,438c7.2-15.5,12.7-31.7,16.4-48.4c1-4.6,1.5-7.3,1.7-8.2c2.8-15.1,4.4-30.7,4.4-46.1
			C551.2,200.1,441.1,90,305.9,90z M512.7,375.3c0,0.3-0.1,0.5-0.1,0.8c-0.1,0.6-0.5,2.6-1.2,5.5c0,0.1,0,0.1,0,0.3
			c-3.2,14.4-8,28.4-14.2,41.8c-0.1,0.1-0.1,0.4-0.3,0.5c-24,56.8-76.6,143.6-191,238.1c-114.4-94.6-167-181.3-191-238.1
			c-0.1-0.1-0.1-0.4-0.3-0.5c-6.2-13.3-10.9-27.5-14.2-41.8c0-0.1,0-0.1,0-0.3c-0.8-3-1-4.9-1.2-5.5c0-0.3-0.1-0.5-0.1-0.9
			c-2.6-13.2-3.8-26.6-3.8-40c0-116.1,94.6-210.7,210.7-210.7c116.1,0,210.7,94.6,210.7,210.7C516.5,348.8,515.3,362.3,512.7,375.3z
			"/>
		<path class="st0" d="M305.9,182.2c-85.8,0-155.8,69.9-155.8,155.8c0,85.8,69.9,155.8,155.8,155.8c85.8,0,155.8-69.9,155.8-155.8
			S391.7,182.2,305.9,182.2z M305.9,459.1c-66.8,0-121.1-54.4-121.1-121.1c0-66.7,54.4-121.1,121.1-121.1
			c66.7,0,121.1,54.4,121.1,121.1C427,404.7,372.7,459.1,305.9,459.1z"/>
	</g>
</g>
</svg>
