<?xml version="1.0" encoding="utf-8"?>
<!-- Generator: Adobe Illustrator 22.0.1, SVG Export Plug-In . SVG Version: 6.00 Build 0)  -->
<svg version="1.1" id="Capa_1" xmlns="http://www.w3.org/2000/svg" xmlns:xlink="http://www.w3.org/1999/xlink" x="0px" y="0px"
	 viewBox="0.4 90 611.1 612" style="enable-background:new 0.4 90 611.1 612;" xml:space="preserve">
<style type="text/css">
	.st0{fill:#0066B3;}
</style>
<g>
	<g>
		<path class="st0" d="M483.7,469.1c-12.5-13-27.6-20-43.7-20c-15.9,0-31.1,6.8-44.2,19.9L355,509.7c-3.4-1.8-6.7-3.5-9.9-5.2
			c-4.7-2.3-9-4.5-12.8-6.8c-38.2-24.3-73-55.9-106.3-96.9c-16.1-20.4-27-37.6-34.9-55c10.6-9.7,20.4-19.8,30-29.4
			c3.6-3.6,7.2-7.4,10.9-11c27.1-27.1,27.1-62.3,0-89.4l-35.3-35.3c-4-4-8.1-8.1-12-12.3c-7.8-8-15.9-16.3-24.3-24
			c-12.5-12.4-27.5-19-43.3-19c-15.8,0-31,6.6-43.9,19c-0.1,0.1-0.1,0.1-0.3,0.3L29,188.9C12.5,205.5,3,225.6,1,249
			c-3.1,37.7,8,72.9,16.5,95.8c20.9,56.4,52.2,108.8,98.8,164.8c56.6,67.6,124.6,120.9,202.4,158.5c29.7,14.1,69.4,30.7,113.7,33.6
			c2.7,0.1,5.6,0.3,8.1,0.3c29.8,0,54.9-10.7,74.5-32c0.1-0.3,0.4-0.4,0.5-0.6c6.7-8.1,14.5-15.5,22.6-23.4
			c5.6-5.3,11.2-10.8,16.8-16.7c12.8-13.3,19.5-28.8,19.5-44.7c0-16-6.8-31.4-19.9-44.3L483.7,469.1z M529.9,605.1
			C529.8,605.1,529.8,605.3,529.9,605.1c-5,5.4-10.2,10.3-15.8,15.8c-8.4,8-16.9,16.4-24.9,25.8c-13,14-28.4,20.5-48.6,20.5
			c-1.9,0-4,0-5.9-0.1c-38.4-2.5-74-17.4-100.8-30.2c-73.1-35.4-137.3-85.6-190.7-149.3c-44-53.1-73.5-102.2-93-154.9
			c-12-32.2-16.4-57.2-14.5-80.9c1.3-15.1,7.1-27.6,17.8-38.4l44-44c6.3-5.9,13-9.2,19.6-9.2c8.1,0,14.7,4.9,18.9,9
			c0.1,0.1,0.3,0.3,0.4,0.4c7.9,7.4,15.4,15,23.3,23.1c4,4.1,8.1,8.3,12.3,12.5l35.3,35.3c13.7,13.7,13.7,26.4,0,40
			c-3.7,3.7-7.4,7.5-11.1,11.1c-10.9,11.1-21.2,21.4-32.4,31.5c-0.3,0.3-0.5,0.4-0.6,0.6c-11.1,11.1-9,22-6.7,29.3
			c0.1,0.4,0.3,0.8,0.4,1.2c9.2,22.2,22.1,43.1,41.7,68.1l0.1,0.1c35.6,43.9,73.2,78.1,114.7,104.4c5.3,3.4,10.7,6.1,15.9,8.7
			c4.7,2.3,9,4.5,12.8,6.8c0.5,0.3,1,0.6,1.5,0.9c4.4,2.2,8.5,3.2,12.8,3.2c10.7,0,17.4-6.7,19.6-8.9l44.2-44.2
			c4.4-4.4,11.4-9.7,19.5-9.7c8,0,14.6,5,18.6,9.4c0.1,0.1,0.1,0.1,0.3,0.3l71.2,71.2C543.1,577.9,543.1,591.4,529.9,605.1z"/>
		<path class="st0" d="M330.7,235.6c33.8,5.7,64.6,21.7,89.1,46.2c24.5,24.5,40.4,55.3,46.2,89.1c1.4,8.5,8.8,14.5,17.2,14.5
			c1,0,1.9-0.1,3-0.3c9.6-1.5,15.9-10.6,14.3-20.1c-7-40.9-26.4-78.3-55.9-107.9s-66.9-49-107.9-55.9c-9.6-1.5-18.5,4.8-20.2,14.2
			C315,224.9,321.2,234,330.7,235.6z"/>
		<path class="st0" d="M611.3,360c-11.5-67.4-43.3-128.8-92.1-177.6c-48.8-48.8-110.2-80.6-177.6-92.1c-9.4-1.7-18.3,4.8-20,14.2
			c-1.5,9.6,4.8,18.5,14.3,20.1c60.2,10.2,115.1,38.7,158.7,82.3c43.7,43.7,72.1,98.6,82.3,158.7c1.4,8.5,8.8,14.5,17.2,14.5
			c1,0,1.9-0.1,3-0.3C606.5,378.4,613,369.4,611.3,360z"/>
	</g>
</g>
</svg>
