<?xml version="1.0" encoding="utf-8"?>
<!-- Generator: Adobe Illustrator 22.0.1, SVG Export Plug-In . SVG Version: 6.00 Build 0)  -->
<svg version="1.1" id="Capa_1" xmlns="http://www.w3.org/2000/svg" xmlns:xlink="http://www.w3.org/1999/xlink" x="0px" y="0px"
	 viewBox="0.1 90 611.9 612" style="enable-background:new 0.1 90 611.9 612;" xml:space="preserve">
<style type="text/css">
	.st0{fill:#333333;}
</style>
<g>
	<path class="st0" d="M606.6,670.8L457.9,522.1c39.9-45.9,64-105.7,64-171.1C522,207,404.9,90,261,90C117,90,0.1,207.1,0.1,350.9
		c0,143.8,117.1,260.9,260.9,260.9c65.4,0,125.2-24.2,171.1-64l148.7,148.7c3.5,3.5,8.3,5.4,12.9,5.4c4.6,0,9.4-1.8,12.9-5.4
		C613.7,689.5,613.7,677.8,606.6,670.8z M36.6,350.9c0-123.8,100.7-224.3,224.3-224.3c123.8,0,224.3,100.7,224.3,224.3
		c0,123.6-100.6,224.4-224.3,224.4C137.3,575.4,36.6,474.7,36.6,350.9z"/>
</g>
</svg>
