<svg xmlns="http://www.w3.org/2000/svg" viewBox="0 0 1764 1764" width="1764" height="1764">
	<defs>
		<clipPath clipPathUnits="userSpaceOnUse" id="cp1">
			<path d="M0 0L1764 0L1764 1764L0 1764Z" />
		</clipPath>
	</defs>
	<style>
		tspan { white-space:pre }
		.shp0 { fill: #ffffff } 
	</style>
	<g id="Page 1" clip-path="url(#cp1)">
		<path id="Path 1" class="shp0" d="M638.29 1213.11L1217.89 881.91L638.29 550.71L638.29 1213.11Z" />
		<path id="Path 2" fill-rule="evenodd" class="shp0" d="M1764.18 881.91C1764.18 1369.07 1369.25 1764 882.09 1764C394.92 1764 0 1369.07 0 881.91C0 394.75 394.92 -0.18 882.09 -0.18C1369.25 -0.18 1764.18 394.75 1764.18 881.91ZM569.9 142.82C474.4 183.22 388.61 241.06 314.93 314.75C241.24 388.44 183.39 474.23 143 569.73C101.2 668.56 80 773.59 80 881.91C80 990.23 101.2 1095.26 143 1194.09C183.39 1289.6 241.24 1375.39 314.93 1449.07C388.61 1522.76 474.4 1580.61 569.9 1621C668.74 1662.81 773.77 1684 882.09 1684C990.41 1684 1095.44 1662.81 1194.27 1621C1289.78 1580.61 1375.56 1522.76 1449.25 1449.07C1522.94 1375.39 1580.78 1289.6 1621.18 1194.09C1662.98 1095.26 1684.18 990.23 1684.18 881.91C1684.18 773.59 1662.98 668.56 1621.18 569.73C1580.78 474.23 1522.94 388.44 1449.25 314.75C1375.56 241.06 1289.78 183.22 1194.27 142.82C1095.44 101.02 990.41 79.82 882.09 79.82C773.77 79.82 668.74 101.02 569.9 142.82Z" />
	</g>
</svg>