<?xml version="1.0" encoding="utf-8"?>
<!-- Generator: Adobe Illustrator 22.0.1, SVG Export Plug-In . SVG Version: 6.00 Build 0)  -->
<svg version="1.1" id="Layer_1" xmlns="http://www.w3.org/2000/svg" xmlns:xlink="http://www.w3.org/1999/xlink" x="0px" y="0px"
	 viewBox="0 0 589 590" style="enable-background:new 0 0 589 590;" xml:space="preserve">
<style type="text/css">
	.st0{fill:#F1F8FD;}
</style>
<path class="st0" d="M298.4,93.2V70c121.9,2.2,220.5,102.1,220.5,224.6c0,123.9-100.8,224.7-224.6,224.7
	c-69.7,0-132.1-31.9-173.3-81.9h31.3c36.4,36.3,86.6,58.7,141.9,58.7c111,0,201.4-90.4,201.4-201.5
	C495.7,184.9,407.5,95.4,298.4,93.2L298.4,93.2z M298.6,23.2V0C459.1,2.2,589,133.5,589,294.6c0,162.4-132.1,294.6-294.5,294.6
	C132.1,589.2,0,457,0,294.6c0-2.4,0-4.8,0.1-7.2h23.2c-0.1,2.4-0.1,4.8-0.1,7.2C23.2,444.2,144.9,566,294.5,566
	c149.6,0,271.3-121.8,271.3-271.4C565.8,146.3,446.3,25.4,298.6,23.2z"/>
</svg>
